<?xml version="1.0" encoding="UTF-8" standalone="no"?>
<!-- Created with Inkscape (http://www.inkscape.org/) -->

<svg
   width="6000"
   height="2600"
   viewBox="0 0 1587.499 687.91668"
   version="1.1"
   id="svg8"
   xml:space="preserve"
   xmlns="http://www.w3.org/2000/svg"
   xmlns:svg="http://www.w3.org/2000/svg"
   xmlns:rdf="http://www.w3.org/1999/02/22-rdf-syntax-ns#"><defs
     id="defs2" /><metadata
     id="metadata5"><rdf:RDF /></metadata><g
     id="layer1"
     transform="translate(370.41669,271.85416)"><rect
       style="fill:#ffffff;fill-opacity:1;stroke-width:0.502707"
       id="rect1459"
       width="1587.4995"
       height="687.9165"
       x="-370.41669"
       y="-271.85419" /><g
       id="g417"
       style="fill:#5481a0;fill-opacity:1"
       transform="translate(128.65959,79.237623)"><g
         id="g851"
         transform="matrix(26.62092,0,0,26.62092,-966.54955,-4871.0261)"
         style="fill:#5481a0;fill-opacity:1;stroke-width:0.0375644"><path
           d="m 55.63191,189.3006 c -0.112448,0 -0.22516,-0.007 -0.319881,-0.027 l 0.0071,-0.23919 c 0.09657,0.0315 0.218017,0.0513 0.338402,0.0513 0.201612,0 0.338137,-0.0894 0.338137,-0.22754 0,-0.33311 -0.712522,-0.12938 -0.712522,-0.65352 0,-0.25215 0.213783,-0.44741 0.619654,-0.44741 0.08996,0 0.197908,0.0119 0.287866,0.0288 l -0.0029,0.22542 c -0.09604,-0.0283 -0.210344,-0.0479 -0.309827,-0.0479 -0.205317,0 -0.305858,0.0836 -0.305858,0.21458 0,0.32756 0.713052,0.14923 0.713052,0.65008 0,0.26856 -0.244475,0.47228 -0.653257,0.47228"
           id="path574"
           style="fill:#5481a0;fill-opacity:1;stroke-width:0.0099389" /><path
           d="m 54.59104,189.27362 v -0.95515 c 0,-0.20584 -0.04524,-0.33761 -0.247121,-0.33761 -0.217752,0 -0.4318,0.22384 -0.4318,0.58182 v 0.71094 h -0.27305 v -0.95965 c 0,-0.18494 -0.04048,-0.33311 -0.249502,-0.33311 -0.234421,0 -0.429684,0.24077 -0.429684,0.58182 v 0.71094 h -0.274637 v -1.49014 h 0.269346 c 0,0.0886 -0.0093,0.22225 -0.02619,0.3138 l 0.0045,0.002 c 0.08784,-0.21008 0.287073,-0.34343 0.533135,-0.34343 0.323321,0 0.413279,0.21881 0.42254,0.33708 0.06429,-0.14023 0.229394,-0.33708 0.52705,-0.33708 0.286808,0 0.455612,0.15187 0.455612,0.48736 v 1.03056 H 54.59104"
           id="path572"
           style="fill:#5481a0;fill-opacity:1;stroke-width:0.0099389" /><path
           d="m 51.645698,187.95599 c -0.202671,0 -0.348456,0.14817 -0.375973,0.36327 h 0.716756 c 0.0048,-0.2151 -0.127793,-0.36327 -0.340783,-0.36327 m 0.615685,0.55801 h -1.004887 c -0.01191,0.39661 0.159014,0.56885 0.486833,0.56885 0.156104,0 0.323056,-0.036 0.444765,-0.0937 l 0.02699,0.21987 c -0.148696,0.0577 -0.327818,0.0915 -0.518318,0.0915 -0.472811,0 -0.725488,-0.23733 -0.725488,-0.76147 0,-0.44635 0.249767,-0.78184 0.683419,-0.78184 0.432329,0 0.613039,0.28443 0.613039,0.62574 0,0.04 -0.0019,0.0789 -0.0063,0.13097"
           id="path570"
           style="fill:#5481a0;fill-opacity:1;stroke-width:0.0099389" /><path
           d="m 50.365908,189.29822 c -0.318293,0 -0.411162,-0.12726 -0.411162,-0.44714 v -0.85725 h -0.312208 v -0.21035 h 0.312208 V 187.303 l 0.276489,-0.077 v 0.55747 h 0.430742 v 0.21035 h -0.430742 v 0.76253 c 0,0.24235 0.04577,0.31035 0.21934,0.31035 0.07012,0 0.147902,-0.0103 0.211402,-0.0283 v 0.22834 c -0.08837,0.0196 -0.197908,0.0315 -0.296069,0.0315"
           id="path568"
           style="fill:#5481a0;fill-opacity:1;stroke-width:0.0099389" /><path
           d="m 48.783171,189.3006 c -0.113771,0 -0.228336,-0.007 -0.324379,-0.027 l 0.01005,-0.23919 c 0.09631,0.0315 0.219604,0.0513 0.335492,0.0513 0.205316,0 0.342106,-0.0894 0.342106,-0.22754 0,-0.33311 -0.713317,-0.12938 -0.713317,-0.65352 0,-0.25215 0.216429,-0.44741 0.615686,-0.44741 0.09287,0 0.200025,0.0119 0.294481,0.0288 l -0.009,0.22542 c -0.0934,-0.0283 -0.203994,-0.0479 -0.306123,-0.0479 -0.204523,0 -0.30824,0.0836 -0.30824,0.21458 0,0.32756 0.716492,0.14923 0.716492,0.65008 0,0.26856 -0.249502,0.47228 -0.653256,0.47228"
           id="path566"
           style="fill:#5481a0;fill-opacity:1;stroke-width:0.0099389" /><path
           d="m 47.57429,189.42337 c -0.183886,0.46223 -0.32438,0.61172 -0.664104,0.61172 -0.06033,0 -0.138378,-0.009 -0.197909,-0.0183 l 0.02222,-0.24315 c 0.06165,0.023 0.126206,0.0312 0.198173,0.0312 0.16854,0 0.256646,-0.0754 0.365125,-0.36354 l 0.06615,-0.16774 -0.57785,-1.49014 h 0.315119 l 0.286543,0.77417 c 0.04974,0.13679 0.08599,0.25083 0.117475,0.3691 h 0.0093 c 0.02778,-0.10478 0.09128,-0.29528 0.149754,-0.45905 l 0.247915,-0.68422 h 0.300566 l -0.638439,1.63989"
           id="path564"
           style="fill:#5481a0;fill-opacity:1;stroke-width:0.0099389" /><path
           d="m 45.919321,189.3006 c -0.114565,0 -0.228865,-0.007 -0.324644,-0.027 l 0.0071,-0.23919 c 0.09816,0.0315 0.220927,0.0513 0.338137,0.0513 0.201613,0 0.344488,-0.0894 0.344488,-0.22754 0,-0.33311 -0.714375,-0.12938 -0.714375,-0.65352 0,-0.25215 0.210079,-0.44741 0.611981,-0.44741 0.09419,0 0.206904,0.0119 0.294481,0.0288 l -0.0045,0.22542 c -0.09631,-0.0283 -0.206111,-0.0479 -0.307975,-0.0479 -0.207434,0 -0.307975,0.0836 -0.307975,0.21458 0,0.32756 0.716491,0.14923 0.716491,0.65008 0,0.26856 -0.248444,0.47228 -0.653256,0.47228"
           id="path562"
           style="fill:#5481a0;fill-opacity:1;stroke-width:0.0099389" /><path
           d="m 44.482898,187.98324 c -0.221985,0 -0.432858,0.16537 -0.432858,0.53235 0,0.35904 0.150548,0.55615 0.432858,0.55615 0.229658,0 0.424656,-0.17251 0.424656,-0.55271 0,-0.33788 -0.137583,-0.53579 -0.424656,-0.53579 m -0.03598,1.31736 c -0.414602,0 -0.685007,-0.23389 -0.685007,-0.7567 0,-0.43842 0.283105,-0.78661 0.744803,-0.78661 0.3937,0 0.692943,0.21061 0.692943,0.74851 0,0.44741 -0.295804,0.7948 -0.752739,0.7948"
           id="path560"
           style="fill:#5481a0;fill-opacity:1;stroke-width:0.0099389" /><path
           d="m 43.506586,188.02187 c -0.322528,-0.054 -0.480484,0.17648 -0.480484,0.65326 v 0.59849 h -0.276489 v -1.49014 h 0.269081 c 0,0.095 -0.01217,0.23178 -0.03519,0.3556 h 0.0066 c 0.06562,-0.20796 0.223573,-0.41539 0.530225,-0.38179 l -0.01376,0.26458"
           id="path558"
           style="fill:#5481a0;fill-opacity:1;stroke-width:0.0099389" /><path
           d="m 41.881515,189.29399 c -0.364596,0 -0.669661,-0.1651 -0.669661,-0.71596 0,-0.4789 0.253736,-0.81915 0.764382,-0.81915 0.121443,0 0.241564,0.022 0.350043,0.0495 l -0.03016,0.23707 c -0.09631,-0.037 -0.208492,-0.0622 -0.332052,-0.0622 -0.30824,0 -0.457994,0.22146 -0.457994,0.56066 0,0.28919 0.09922,0.52202 0.439737,0.52202 0.128323,0 0.264584,-0.0315 0.362215,-0.0818 l 0.0209,0.23416 c -0.101864,0.0373 -0.262731,0.0757 -0.44741,0.0757"
           id="path556"
           style="fill:#5481a0;fill-opacity:1;stroke-width:0.0099389" /><g
           id="g1012"><path
             d="m 40.570504,187.53821 c 0.100807,0 0.182034,-0.0796 0.182034,-0.17515 0,-0.0995 -0.08123,-0.17515 -0.182034,-0.17515 -0.103187,0 -0.189177,0.0791 -0.189177,0.17515 0,0.0976 0.08599,0.17515 0.189177,0.17515"
             id="path576"
             style="fill:#5481a0;fill-opacity:1;stroke-width:0.0099389" /><path
             d="m 40.206967,187.78084 v 0.21034 h 0.222514 v 1.28244 h 0.277548 v -1.49014"
             id="path578"
             style="fill:#5481a0;fill-opacity:1;stroke-width:0.0099389" /></g><path
           d="m 39.5127,189.27362 v -0.95515 c 0,-0.20584 -0.05345,-0.33761 -0.248708,-0.33761 -0.223838,0 -0.432594,0.22384 -0.432594,0.58182 v 0.71094 h -0.275431 v -0.95965 c 0,-0.18494 -0.03889,-0.33311 -0.250296,-0.33311 -0.233098,0 -0.428096,0.24077 -0.428096,0.58182 v 0.71094 h -0.276489 v -1.49014 h 0.267229 c 0,0.0886 -0.0045,0.22225 -0.02699,0.3138 l 0.0074,0.002 c 0.09022,-0.21008 0.289718,-0.34343 0.534723,-0.34343 0.324379,0 0.410104,0.21881 0.42492,0.33708 0.06297,-0.14023 0.227277,-0.33708 0.524669,-0.33708 0.287073,0 0.453496,0.15187 0.453496,0.48736 v 1.03056 H 39.5127"
           id="path554"
           style="fill:#5481a0;fill-opacity:1;stroke-width:0.0099389" /></g><text
         xml:space="preserve"
         style="font-size:50.2708px;line-height:1.25;font-family:serif;-inkscape-font-specification:serif;letter-spacing:0px;word-spacing:0px;fill:#5481a0;fill-opacity:1;stroke-width:0.264583"
         x="882.37189"
         y="89.714821"
         id="text442"
         transform="translate(-7.0107482e-6)"><tspan
           id="tspan440"
           style="font-style:normal;font-variant:normal;font-weight:normal;font-stretch:normal;font-size:50.2708px;font-family:sans;-inkscape-font-specification:sans;fill:#5481a0;fill-opacity:1;stroke-width:0.264583"
           x="882.37189"
           y="89.714821">®</tspan></text><g
         aria-label="Moon"
         transform="translate(-7.0107482e-6,1.0110289e-4)"
         id="text388"
         style="font-size:357.188px;line-height:1.25;font-family:serif;-inkscape-font-specification:serif;letter-spacing:0px;word-spacing:0px;stroke-width:0.264583"><path
           d="m 344.88421,-169.12506 q 0.26978,2.69779 -1.88846,4.85603 -1.88846,1.88845 -4.85603,2.42801 l -7.8236,1.3489 q -3.50714,0.80934 -5.66537,1.61867 -1.88846,0.53956 -3.50713,2.6978 -2.96758,3.50713 -4.58626,6.74448 -1.34889,3.23736 -2.42801,7.82361 L 266.64817,58.02923 q -0.80934,3.776912 -0.80934,6.744486 0,5.665368 1.3489,7.014266 3.23735,3.237353 6.4747,3.507132 l 8.63295,1.079118 q 5.39558,0.809338 5.39558,6.474707 0,2.158235 -0.53955,3.237353 -0.80934,2.428015 -3.50714,3.507133 -2.69779,0.809338 -6.20493,0.809338 -2.96757,0 -4.58625,0 l -38.57846,-1.888456 -38.84824,1.888456 q -3.23735,0 -5.93514,-1.079117 -2.42802,-1.348898 -2.6978,-3.776913 -0.53956,-3.776912 1.88846,-5.665368 2.69779,-1.888456 7.55382,-2.967574 l 9.98184,-2.158236 q 2.96757,-0.539558 5.39559,-1.888456 2.69779,-1.348897 5.39559,-2.967574 2.96757,-1.888456 3.77691,-3.507132 0.80934,-1.888457 1.88846,-6.204928 L 271.77398,-130.27682 149.29411,79.072027 q -3.50714,5.395589 -6.20493,7.014265 -2.42801,1.618677 -5.12581,0.809339 Q 132.298,85.546733 132.298,80.151144 L 132.56778,-133.2444 72.137186,50.205626 q -1.079118,3.237353 -2.158236,7.284045 -1.079118,3.776912 -1.079118,7.553824 0,4.316471 1.888456,7.284045 2.158236,2.697795 5.935148,3.237354 3.776912,0.539559 5.395589,0.539559 l 7.823604,0.539559 q 3.237353,0 5.395589,2.158235 2.428015,1.888456 2.428015,5.12581 0,2.967574 -2.428015,4.85603 -2.158236,1.618676 -5.665368,1.618676 L 50.55483,89.593425 22.767547,90.402763 q -4.586251,0 -5.935148,-4.316471 -1.079118,-2.967574 1.348897,-5.125809 2.428015,-2.158236 6.474707,-3.237354 l 8.902722,-1.888456 q 4.58625,-0.809338 8.093383,-3.507133 6.204927,-4.85603 8.902722,-12.679634 l 70.14266,-201.795026 q 1.34889,-3.77691 2.15823,-6.74449 1.07912,-2.96757 1.07912,-4.85603 0,-2.96757 -1.88846,-4.58625 -1.61867,-1.61867 -5.93514,-2.15823 l -11.33074,-1.07912 q -6.474708,-0.80934 -6.474708,-7.55382 0,-2.96758 2.428018,-4.58626 2.69779,-1.61867 6.20492,-1.61867 h 57.19325 q 5.12581,0 7.01426,1.34889 1.88846,1.3489 2.42802,3.50714 0.26978,1.07912 0.26978,4.85603 L 173.57426,9.1991497 275.01133,-165.34815 q 0.80934,-1.3489 1.88846,-3.50714 1.34889,-2.15823 4.04669,-3.77691 3.77691,-2.69779 9.98184,-2.69779 l 20.23346,1.07912 27.78728,-1.07912 q 2.15823,0 4.04669,1.88845 1.88846,1.88846 1.88846,4.31648 z"
           style="font-family:'Garamond Condensed';-inkscape-font-specification:'Garamond Condensed, '"
           id="path323" /><path
           d="m 497.57945,-28.569973 q 0,46.402065 -33.99221,84.980526 -33.72243,38.578461 -70.95199,38.578461 -10.5214,0 -19.6939,-3.776912 -9.1725,-3.507133 -17.26588,-11.330737 -12.67964,-12.140075 -18.07523,-28.596621 -5.39559,-16.726326 -5.39559,-38.038903 0,-45.053167 32.64332,-83.361849 32.64331,-38.308682 70.41243,-38.308682 10.79118,0 20.50324,3.50713 9.98184,3.50714 19.15434,11.60052 12.67963,11.330737 18.07522,27.787283 4.58625,14.298311 4.58625,36.959784 z M 450.63783,14.05518 q 6.47471,-18.8845615 10.25162,-35.071328 5.12581,-21.852136 5.12581,-38.308682 0,-13.758752 -3.77691,-22.931253 -3.77692,-9.172501 -12.40986,-12.949413 -5.12581,-2.158236 -10.79118,-2.158236 -16.45654,0 -32.10375,19.963679 -14.02853,17.805444 -24.28015,46.402065 -7.55382,20.773018 -12.14008,41.276256 -4.58625,20.233458 -4.58625,37.499343 0,12.679634 2.6978,20.773017 2.69779,7.823604 9.1725,11.870296 6.74449,4.046692 14.29831,4.046692 17.26589,0 34.26199,-22.661474 14.56809,-19.154341 24.28015,-47.750962 z"
           style="font-family:'Garamond Condensed';-inkscape-font-specification:'Garamond Condensed, '"
           id="path325" /><path
           d="m 681.02962,-28.569973 q 0,46.402065 -33.99221,84.980526 -33.72243,38.578461 -70.952,38.578461 -10.52139,0 -19.6939,-3.776912 -9.1725,-3.507133 -17.26588,-11.330737 Q 526.446,67.74129 521.05041,51.284744 q -5.39559,-16.726326 -5.39559,-38.038903 0,-45.053167 32.64331,-83.361849 32.64331,-38.308682 70.41244,-38.308682 10.79117,0 20.50323,3.50713 9.98184,3.50714 19.15435,11.60052 12.67963,11.330737 18.07522,27.787283 4.58625,14.298311 4.58625,36.959784 z M 634.088,14.05518 q 6.4747,-18.8845615 10.25161,-35.071328 5.12581,-21.852136 5.12581,-38.308682 0,-13.758752 -3.77691,-22.931253 -3.77691,-9.172501 -12.40985,-12.949413 -5.12581,-2.158236 -10.79118,-2.158236 -16.45655,0 -32.10376,19.963679 -14.02853,17.805444 -24.28015,46.402065 -7.55382,20.773018 -12.14007,41.276256 -4.58625,20.233458 -4.58625,37.499343 0,12.679634 2.69779,20.773017 2.6978,7.823604 9.1725,11.870296 6.74449,4.046692 14.29832,4.046692 17.26588,0 34.26199,-22.661474 Q 624.37594,42.651801 634.088,14.05518 Z"
           style="font-family:'Garamond Condensed';-inkscape-font-specification:'Garamond Condensed, '"
           id="path327" /><path
           d="m 899.82086,14.05518 q 2.15824,1.348897 2.15824,4.58625 0,3.507133 -2.6978,9.172502 -1.61867,3.507132 -5.66537,9.71206 l -10.79117,17.265884 q -9.71206,15.377429 -25.89883,27.247724 -15.91699,11.600517 -27.78728,11.600517 -4.58625,0 -8.36317,-2.158236 -3.50713,-2.158235 -5.66537,-7.284045 -1.88845,-5.125809 -1.88845,-11.870296 0,-7.284045 2.15823,-16.726325 2.42802,-9.442281 5.66537,-18.614782 l 34.80155,-94.692586 q 1.88846,-5.12581 3.23735,-10.251619 1.61868,-5.395589 1.61868,-8.902722 0,-7.553825 -6.20493,-8.632942 -15.37742,-3.507133 -47.2114,39.927358 Q 773.56408,0.5662074 754.9493,57.219891 l -7.28405,22.391694 q -1.07911,3.507133 -1.61867,5.665369 -0.53956,2.158235 -2.6978,3.776912 -2.15823,1.348897 -3.50713,1.348897 h -25.08949 q -0.53956,0 -2.42801,-1.618676 -1.88846,-1.618677 -1.88846,-4.316471 0,-2.158236 1.07912,-5.935148 l 42.89493,-132.19193 q 1.3489,-2.967573 2.69779,-9.44228 1.3489,-6.744486 1.3489,-11.060958 0,-4.316471 -1.88846,-5.125809 -3.77691,-1.079118 -12.14007,7.014266 -7.01427,7.014265 -13.48897,16.996105 l -6.47471,9.981839 q -3.77691,5.665369 -5.93515,7.823604 -3.77691,4.046692 -5.93515,2.697795 -1.88845,-1.079118 -1.88845,-3.776912 0,-3.507133 2.42801,-8.902722 2.42802,-5.395589 5.93515,-10.521399 l 9.44228,-13.219193 q 10.25162,-14.56809 23.47081,-24.549929 14.29831,-10.791175 25.35927,-10.791175 5.66537,0 9.71206,3.23735 6.47471,4.85603 6.47471,18.345003 0,8.363162 -2.96758,21.582355 -1.88845,8.093384 -5.93514,22.931253 l -4.85603,16.996106 13.48897,-19.96368 q 13.21919,-20.773017 28.32684,-36.420225 26.16861,-27.517502 47.2114,-27.517502 5.66537,0 9.44229,1.3489 8.36316,2.69779 12.40985,10.521394 4.04669,7.553825 4.04669,18.075223 0,7.553825 -1.88845,15.647208 -1.61868,8.093383 -4.58626,16.726326 L 857.46549,38.33533 q -2.42802,7.014266 -3.23736,9.98184 -2.69779,8.902721 -2.69779,12.409854 0,1.888456 0.80934,2.428015 3.50713,1.888456 10.79118,-4.046692 7.55382,-6.204927 12.40985,-13.758751 l 12.14008,-18.884562 q 7.01426,-10.521398 7.55382,-11.060957 2.6978,-2.697794 4.58625,-1.348897 z"
           style="font-family:'Garamond Condensed';-inkscape-font-specification:'Garamond Condensed, '"
           id="path329" /></g><g
         id="g762"
         transform="rotate(-44.915766,-139.02494,311.8602)"
         style="fill:#5481a0;fill-opacity:1"><g
           id="g683"
           transform="rotate(-90,150.81261,106.50009)"
           style="fill:#5481a0;fill-opacity:1"><path
             id="path696"
             style="fill:#5481a0;fill-opacity:1;stroke:none;stroke-width:0.502708"
             d="m 55.562503,-81.354187 c -5.108827,-7.1e-5 -10.127668,1.344644 -14.552083,3.898987 -9.004933,5.199 -14.552167,14.80718 -14.552084,25.20518 v 63.5 c -8.3e-5,10.398 5.547151,20.00618 14.552084,25.20518 9.00486,5.198959 20.099306,5.198959 29.104166,0 9.004933,-5.199 14.552167,-14.80718 14.552084,-25.20518 v -63.5 c 8.3e-5,-10.398 -5.547151,-20.00618 -14.552084,-25.20518 -4.424415,-2.554343 -9.443256,-3.899058 -14.552083,-3.898987 z M 52.91667,-52.25002 h 5.291666 v 63.5 H 52.91667 Z"
             transform="translate(63.499995)" /><path
             id="path712"
             style="fill:#5481a0;fill-opacity:1;stroke:none;stroke-width:0.502708"
             d="m 55.5625,-81.354187 c -5.108827,-7.1e-5 -10.127668,1.344644 -14.552083,3.898987 -9.004933,5.199 -14.552167,14.80718 -14.552084,25.20518 v 63.5 c -8.3e-5,10.398 5.547151,20.00618 14.552084,25.20518 9.00486,5.198959 20.099306,5.198959 29.104166,0 9.004933,-5.199 14.552167,-14.80718 14.552084,-25.20518 v -63.5 c 8.3e-5,-10.398 -5.547151,-20.00618 -14.552084,-25.20518 -4.424415,-2.554343 -9.443256,-3.899058 -14.552083,-3.898987 z m -2.645833,29.104167 h 5.291666 v 63.5 h -5.291666 z"
             transform="translate(127.00001)" /></g><g
           id="g718"
           transform="rotate(180,87.312497,43.000093)"
           style="fill:#5481a0;fill-opacity:1"><path
             id="path678"
             style="fill:#5481a0;fill-opacity:1;stroke:none;stroke-width:0.502708"
             d="m 55.5625,-81.354187 c -5.108827,-7.1e-5 -10.127668,1.344644 -14.552083,3.898987 -9.004933,5.199 -14.552167,14.80718 -14.552084,25.20518 V 40.354147 H 52.916667 V -52.25002 h 5.291666 V 40.354147 H 84.666667 V -52.25002 c 8.3e-5,-10.398 -5.547151,-20.00618 -14.552084,-25.20518 -4.424415,-2.554343 -9.443256,-3.899058 -14.552083,-3.898987 z"
             transform="translate(9.9712892e-6)" /><path
             id="path682"
             style="fill:#5481a0;fill-opacity:1;stroke:none;stroke-width:0.502708"
             d="m 55.562499,-81.354187 c -5.108827,-7.1e-5 -10.127668,1.344644 -14.552083,3.898987 -9.004933,5.199 -14.552167,14.80718 -14.552084,25.20518 V 40.354147 H 52.916666 V -52.25002 h 5.291666 V 40.354147 H 84.666666 V -52.25002 c 8.3e-5,-10.398 -5.547151,-20.00618 -14.552084,-25.20518 -4.424415,-2.554343 -9.443256,-3.899058 -14.552083,-3.898987 z"
             transform="translate(-63.500004)" /></g><g
           id="g514"
           style="fill:#5481a0;fill-opacity:1"
           transform="translate(5.0907731e-6)"><path
             id="rect418"
             style="fill:#5481a0;fill-opacity:1;stroke:none;stroke-width:0.502708"
             d="m 55.562499,-81.354187 c -5.108827,-7.1e-5 -10.127668,1.344644 -14.552083,3.898987 -9.004933,5.199 -14.552167,14.80718 -14.552084,25.20518 V 40.354147 H 52.916666 V -52.25002 h 5.291666 V 40.354147 H 84.666666 V -52.25002 c 8.3e-5,-10.398 -5.547151,-20.00618 -14.552084,-25.20518 -4.424415,-2.554343 -9.443256,-3.899058 -14.552083,-3.898987 z"
             transform="translate(-63.500005)" /><path
             id="rect355"
             style="fill:#5481a0;fill-opacity:1;stroke:none;stroke-width:0.502708"
             d="m 55.5625,-81.354187 c -5.108827,-7.1e-5 -10.127668,1.344644 -14.552083,3.898987 -9.004933,5.199 -14.552167,14.80718 -14.552084,25.20518 V 40.354147 H 52.916667 V -52.25002 h 5.291666 V 40.354147 H 84.666667 V -52.25002 c 8.3e-5,-10.398 -5.547151,-20.00618 -14.552084,-25.20518 -4.424415,-2.554343 -9.443256,-3.899058 -14.552083,-3.898987 z"
             transform="translate(3.217138e-6)" /></g><g
           id="g701"
           transform="rotate(90,150.8125,-20.500024)"
           style="fill:#5481a0;fill-opacity:1"><path
             id="rect472"
             style="fill:#5481a0;fill-opacity:1;stroke:none;stroke-width:0.502708"
             d="m 55.5625,-81.354187 c -5.108827,-7.1e-5 -10.127668,1.344644 -14.552083,3.898987 -9.004933,5.199 -14.552167,14.80718 -14.552084,25.20518 v 63.5 c -8.3e-5,10.398 5.547151,20.00618 14.552084,25.20518 9.00486,5.198959 20.099306,5.198959 29.104166,0 9.004933,-5.199 14.552167,-14.80718 14.552084,-25.20518 v -63.5 c 8.3e-5,-10.398 -5.547151,-20.00618 -14.552084,-25.20518 -4.424415,-2.554343 -9.443256,-3.899058 -14.552083,-3.898987 z m -2.645833,29.104167 h 5.291666 v 63.5 h -5.291666 z"
             transform="translate(127)" /><path
             id="rect442"
             style="fill:#5481a0;fill-opacity:1;stroke:none;stroke-width:0.502708"
             d="m 55.562503,-81.354187 c -5.108827,-7.1e-5 -10.127668,1.344644 -14.552083,3.898987 -9.004933,5.199 -14.552167,14.80718 -14.552084,25.20518 v 63.5 c -8.3e-5,10.398 5.547151,20.00618 14.552084,25.20518 9.00486,5.198959 20.099306,5.198959 29.104166,0 9.004933,-5.199 14.552167,-14.80718 14.552084,-25.20518 v -63.5 c 8.3e-5,-10.398 -5.547151,-20.00618 -14.552084,-25.20518 -4.424415,-2.554343 -9.443256,-3.899058 -14.552083,-3.898987 z M 52.91667,-52.25002 h 5.291666 v 63.5 H 52.91667 Z"
             transform="translate(63.499996)" /></g></g></g></g></svg>
