<?xml version="1.0" encoding="UTF-8" standalone="no"?>
<!-- Created with Inkscape (http://www.inkscape.org/) -->

<svg
   width="6000"
   height="2600"
   viewBox="0 0 1587.499 687.91668"
   version="1.1"
   id="svg8"
   inkscape:version="1.2.2 (b0a8486541, 2022-12-01)"
   sodipodi:docname="moon.svg"
   xml:space="preserve"
   inkscape:export-filename="moon.png"
   inkscape:export-xdpi="96"
   inkscape:export-ydpi="96"
   xmlns:inkscape="http://www.inkscape.org/namespaces/inkscape"
   xmlns:sodipodi="http://sodipodi.sourceforge.net/DTD/sodipodi-0.dtd"
   xmlns="http://www.w3.org/2000/svg"
   xmlns:svg="http://www.w3.org/2000/svg"
   xmlns:rdf="http://www.w3.org/1999/02/22-rdf-syntax-ns#"><defs
     id="defs2" /><sodipodi:namedview
     id="base"
     pagecolor="#ffffff"
     bordercolor="#666666"
     borderopacity="1.0"
     inkscape:pageopacity="0.0"
     inkscape:pageshadow="2"
     inkscape:zoom="0.175"
     inkscape:cx="2662.8571"
     inkscape:cy="1220"
     inkscape:document-units="px"
     inkscape:current-layer="layer1"
     showgrid="true"
     units="px"
     inkscape:pagecheckerboard="true"
     borderlayer="false"
     inkscape:showpageshadow="true"
     showguides="true"
     inkscape:window-width="1920"
     inkscape:window-height="1014"
     inkscape:window-x="0"
     inkscape:window-y="0"
     inkscape:window-maximized="1"
     inkscape:deskcolor="#d1d1d1"><inkscape:grid
       type="xygrid"
       id="grid817"
       empcolor="#000000"
       empopacity="0.25098039"
       spacingx="2.6458333"
       spacingy="2.6458333"
       empspacing="1"
       originx="370.41211"
       originy="489.48486" /></sodipodi:namedview><metadata
     id="metadata5"><rdf:RDF /></metadata><g
     inkscape:label="Layer 1"
     inkscape:groupmode="layer"
     id="layer1"
     transform="translate(370.41669,271.85416)"><rect
       style="fill:#ffffff;fill-opacity:1;stroke-width:0.502707"
       id="rect1459"
       width="1587.4995"
       height="687.9165"
       x="-370.41669"
       y="-271.85419"
       inkscape:label="background" /><g
       id="g417"
       style="fill:#5481a0;fill-opacity:1"
       inkscape:label="logo"
       transform="translate(128.65959,79.237623)"><g
         id="g851"
         transform="matrix(26.62092,0,0,26.62092,-966.54955,-4871.0261)"
         style="fill:#5481a0;fill-opacity:1;stroke-width:0.0375644"
         inkscape:label="bottom text"><path
           d="m 55.63191,189.3006 c -0.112448,0 -0.22516,-0.007 -0.319881,-0.027 l 0.0071,-0.23919 c 0.09657,0.0315 0.218017,0.0513 0.338402,0.0513 0.201612,0 0.338137,-0.0894 0.338137,-0.22754 0,-0.33311 -0.712522,-0.12938 -0.712522,-0.65352 0,-0.25215 0.213783,-0.44741 0.619654,-0.44741 0.08996,0 0.197908,0.0119 0.287866,0.0288 l -0.0029,0.22542 c -0.09604,-0.0283 -0.210344,-0.0479 -0.309827,-0.0479 -0.205317,0 -0.305858,0.0836 -0.305858,0.21458 0,0.32756 0.713052,0.14923 0.713052,0.65008 0,0.26856 -0.244475,0.47228 -0.653257,0.47228"
           id="path574"
           style="fill:#5481a0;fill-opacity:1;stroke-width:0.0099389"
           inkscape:label="s" /><path
           d="m 54.59104,189.27362 v -0.95515 c 0,-0.20584 -0.04524,-0.33761 -0.247121,-0.33761 -0.217752,0 -0.4318,0.22384 -0.4318,0.58182 v 0.71094 h -0.27305 v -0.95965 c 0,-0.18494 -0.04048,-0.33311 -0.249502,-0.33311 -0.234421,0 -0.429684,0.24077 -0.429684,0.58182 v 0.71094 h -0.274637 v -1.49014 h 0.269346 c 0,0.0886 -0.0093,0.22225 -0.02619,0.3138 l 0.0045,0.002 c 0.08784,-0.21008 0.287073,-0.34343 0.533135,-0.34343 0.323321,0 0.413279,0.21881 0.42254,0.33708 0.06429,-0.14023 0.229394,-0.33708 0.52705,-0.33708 0.286808,0 0.455612,0.15187 0.455612,0.48736 v 1.03056 H 54.59104"
           id="path572"
           style="fill:#5481a0;fill-opacity:1;stroke-width:0.0099389"
           inkscape:label="m" /><path
           d="m 51.645698,187.95599 c -0.202671,0 -0.348456,0.14817 -0.375973,0.36327 h 0.716756 c 0.0048,-0.2151 -0.127793,-0.36327 -0.340783,-0.36327 m 0.615685,0.55801 h -1.004887 c -0.01191,0.39661 0.159014,0.56885 0.486833,0.56885 0.156104,0 0.323056,-0.036 0.444765,-0.0937 l 0.02699,0.21987 c -0.148696,0.0577 -0.327818,0.0915 -0.518318,0.0915 -0.472811,0 -0.725488,-0.23733 -0.725488,-0.76147 0,-0.44635 0.249767,-0.78184 0.683419,-0.78184 0.432329,0 0.613039,0.28443 0.613039,0.62574 0,0.04 -0.0019,0.0789 -0.0063,0.13097"
           id="path570"
           style="fill:#5481a0;fill-opacity:1;stroke-width:0.0099389"
           inkscape:label="e" /><path
           d="m 50.365908,189.29822 c -0.318293,0 -0.411162,-0.12726 -0.411162,-0.44714 v -0.85725 h -0.312208 v -0.21035 h 0.312208 V 187.303 l 0.276489,-0.077 v 0.55747 h 0.430742 v 0.21035 h -0.430742 v 0.76253 c 0,0.24235 0.04577,0.31035 0.21934,0.31035 0.07012,0 0.147902,-0.0103 0.211402,-0.0283 v 0.22834 c -0.08837,0.0196 -0.197908,0.0315 -0.296069,0.0315"
           id="path568"
           style="fill:#5481a0;fill-opacity:1;stroke-width:0.0099389"
           inkscape:label="t" /><path
           d="m 48.783171,189.3006 c -0.113771,0 -0.228336,-0.007 -0.324379,-0.027 l 0.01005,-0.23919 c 0.09631,0.0315 0.219604,0.0513 0.335492,0.0513 0.205316,0 0.342106,-0.0894 0.342106,-0.22754 0,-0.33311 -0.713317,-0.12938 -0.713317,-0.65352 0,-0.25215 0.216429,-0.44741 0.615686,-0.44741 0.09287,0 0.200025,0.0119 0.294481,0.0288 l -0.009,0.22542 c -0.0934,-0.0283 -0.203994,-0.0479 -0.306123,-0.0479 -0.204523,0 -0.30824,0.0836 -0.30824,0.21458 0,0.32756 0.716492,0.14923 0.716492,0.65008 0,0.26856 -0.249502,0.47228 -0.653256,0.47228"
           id="path566"
           style="fill:#5481a0;fill-opacity:1;stroke-width:0.0099389"
           inkscape:label="s" /><path
           d="m 47.57429,189.42337 c -0.183886,0.46223 -0.32438,0.61172 -0.664104,0.61172 -0.06033,0 -0.138378,-0.009 -0.197909,-0.0183 l 0.02222,-0.24315 c 0.06165,0.023 0.126206,0.0312 0.198173,0.0312 0.16854,0 0.256646,-0.0754 0.365125,-0.36354 l 0.06615,-0.16774 -0.57785,-1.49014 h 0.315119 l 0.286543,0.77417 c 0.04974,0.13679 0.08599,0.25083 0.117475,0.3691 h 0.0093 c 0.02778,-0.10478 0.09128,-0.29528 0.149754,-0.45905 l 0.247915,-0.68422 h 0.300566 l -0.638439,1.63989"
           id="path564"
           style="fill:#5481a0;fill-opacity:1;stroke-width:0.0099389"
           inkscape:label="y" /><path
           d="m 45.919321,189.3006 c -0.114565,0 -0.228865,-0.007 -0.324644,-0.027 l 0.0071,-0.23919 c 0.09816,0.0315 0.220927,0.0513 0.338137,0.0513 0.201613,0 0.344488,-0.0894 0.344488,-0.22754 0,-0.33311 -0.714375,-0.12938 -0.714375,-0.65352 0,-0.25215 0.210079,-0.44741 0.611981,-0.44741 0.09419,0 0.206904,0.0119 0.294481,0.0288 l -0.0045,0.22542 c -0.09631,-0.0283 -0.206111,-0.0479 -0.307975,-0.0479 -0.207434,0 -0.307975,0.0836 -0.307975,0.21458 0,0.32756 0.716491,0.14923 0.716491,0.65008 0,0.26856 -0.248444,0.47228 -0.653256,0.47228"
           id="path562"
           style="fill:#5481a0;fill-opacity:1;stroke-width:0.0099389"
           inkscape:label="s" /><path
           d="m 44.482898,187.98324 c -0.221985,0 -0.432858,0.16537 -0.432858,0.53235 0,0.35904 0.150548,0.55615 0.432858,0.55615 0.229658,0 0.424656,-0.17251 0.424656,-0.55271 0,-0.33788 -0.137583,-0.53579 -0.424656,-0.53579 m -0.03598,1.31736 c -0.414602,0 -0.685007,-0.23389 -0.685007,-0.7567 0,-0.43842 0.283105,-0.78661 0.744803,-0.78661 0.3937,0 0.692943,0.21061 0.692943,0.74851 0,0.44741 -0.295804,0.7948 -0.752739,0.7948"
           id="path560"
           style="fill:#5481a0;fill-opacity:1;stroke-width:0.0099389"
           inkscape:label="o" /><path
           d="m 43.506586,188.02187 c -0.322528,-0.054 -0.480484,0.17648 -0.480484,0.65326 v 0.59849 h -0.276489 v -1.49014 h 0.269081 c 0,0.095 -0.01217,0.23178 -0.03519,0.3556 h 0.0066 c 0.06562,-0.20796 0.223573,-0.41539 0.530225,-0.38179 l -0.01376,0.26458"
           id="path558"
           style="fill:#5481a0;fill-opacity:1;stroke-width:0.0099389"
           inkscape:label="r" /><path
           d="m 41.881515,189.29399 c -0.364596,0 -0.669661,-0.1651 -0.669661,-0.71596 0,-0.4789 0.253736,-0.81915 0.764382,-0.81915 0.121443,0 0.241564,0.022 0.350043,0.0495 l -0.03016,0.23707 c -0.09631,-0.037 -0.208492,-0.0622 -0.332052,-0.0622 -0.30824,0 -0.457994,0.22146 -0.457994,0.56066 0,0.28919 0.09922,0.52202 0.439737,0.52202 0.128323,0 0.264584,-0.0315 0.362215,-0.0818 l 0.0209,0.23416 c -0.101864,0.0373 -0.262731,0.0757 -0.44741,0.0757"
           id="path556"
           style="fill:#5481a0;fill-opacity:1;stroke-width:0.0099389"
           inkscape:label="c" /><g
           id="g1012"
           inkscape:label="i"><path
             d="m 40.570504,187.53821 c 0.100807,0 0.182034,-0.0796 0.182034,-0.17515 0,-0.0995 -0.08123,-0.17515 -0.182034,-0.17515 -0.103187,0 -0.189177,0.0791 -0.189177,0.17515 0,0.0976 0.08599,0.17515 0.189177,0.17515"
             id="path576"
             style="fill:#5481a0;fill-opacity:1;stroke-width:0.0099389"
             inkscape:label="dot" /><path
             d="m 40.206967,187.78084 v 0.21034 h 0.222514 v 1.28244 h 0.277548 v -1.49014"
             id="path578"
             style="fill:#5481a0;fill-opacity:1;stroke-width:0.0099389"
             inkscape:label="base" /></g><path
           d="m 39.5127,189.27362 v -0.95515 c 0,-0.20584 -0.05345,-0.33761 -0.248708,-0.33761 -0.223838,0 -0.432594,0.22384 -0.432594,0.58182 v 0.71094 h -0.275431 v -0.95965 c 0,-0.18494 -0.03889,-0.33311 -0.250296,-0.33311 -0.233098,0 -0.428096,0.24077 -0.428096,0.58182 v 0.71094 h -0.276489 v -1.49014 h 0.267229 c 0,0.0886 -0.0045,0.22225 -0.02699,0.3138 l 0.0074,0.002 c 0.09022,-0.21008 0.289718,-0.34343 0.534723,-0.34343 0.324379,0 0.410104,0.21881 0.42492,0.33708 0.06297,-0.14023 0.227277,-0.33708 0.524669,-0.33708 0.287073,0 0.453496,0.15187 0.453496,0.48736 v 1.03056 H 39.5127"
           id="path554"
           style="fill:#5481a0;fill-opacity:1;stroke-width:0.0099389"
           inkscape:label="m" /></g><text
         xml:space="preserve"
         style="font-size:50.2708px;line-height:1.25;font-family:serif;-inkscape-font-specification:serif;letter-spacing:0px;word-spacing:0px;fill:#5481a0;fill-opacity:1;stroke-width:0.264583"
         x="882.37189"
         y="89.714821"
         id="text442"
         transform="translate(-7.0107482e-6)"
         inkscape:label="trademark"><tspan
           sodipodi:role="line"
           id="tspan440"
           style="font-style:normal;font-variant:normal;font-weight:normal;font-stretch:normal;font-size:50.2708px;font-family:sans;-inkscape-font-specification:sans;fill:#5481a0;fill-opacity:1;stroke-width:0.264583"
           x="882.37189"
           y="89.714821">®</tspan></text><text
         xml:space="preserve"
         style="font-size:357.188px;line-height:1.25;font-family:serif;-inkscape-font-specification:serif;letter-spacing:0px;word-spacing:0px;fill:#5481a0;fill-opacity:1;stroke-width:0.264583"
         x="3.8829854"
         y="90.402763"
         id="text388"
         inkscape:label="logo test"
         transform="translate(-7.0107482e-6,1.0110289e-4)"><tspan
           sodipodi:role="line"
           id="tspan386"
           style="font-style:normal;font-variant:normal;font-weight:normal;font-stretch:normal;font-size:357.188px;font-family:'Garamond Condensed';-inkscape-font-specification:'Garamond Condensed, ';fill:#5481a0;fill-opacity:1;stroke-width:0.264583"
           x="3.8829854"
           y="90.402763">Moon</tspan></text><g
         id="g762"
         transform="rotate(-44.915766,-139.02494,311.8602)"
         style="fill:#5481a0;fill-opacity:1"
         inkscape:label="emblem"><g
           id="g683"
           transform="rotate(-90,150.81261,106.50009)"
           style="fill:#5481a0;fill-opacity:1"
           inkscape:label="down"><path
             id="path696"
             style="fill:#5481a0;fill-opacity:1;stroke:none;stroke-width:0.502708"
             d="m 55.562503,-81.354187 c -5.108827,-7.1e-5 -10.127668,1.344644 -14.552083,3.898987 -9.004933,5.199 -14.552167,14.80718 -14.552084,25.20518 v 63.5 c -8.3e-5,10.398 5.547151,20.00618 14.552084,25.20518 9.00486,5.198959 20.099306,5.198959 29.104166,0 9.004933,-5.199 14.552167,-14.80718 14.552084,-25.20518 v -63.5 c 8.3e-5,-10.398 -5.547151,-20.00618 -14.552084,-25.20518 -4.424415,-2.554343 -9.443256,-3.899058 -14.552083,-3.898987 z M 52.91667,-52.25002 h 5.291666 v 63.5 H 52.91667 Z"
             sodipodi:nodetypes="ccccssccccccccc"
             transform="translate(63.499995)"
             inkscape:label="lower" /><path
             id="path712"
             style="fill:#5481a0;fill-opacity:1;stroke:none;stroke-width:0.502708"
             d="m 55.5625,-81.354187 c -5.108827,-7.1e-5 -10.127668,1.344644 -14.552083,3.898987 -9.004933,5.199 -14.552167,14.80718 -14.552084,25.20518 v 63.5 c -8.3e-5,10.398 5.547151,20.00618 14.552084,25.20518 9.00486,5.198959 20.099306,5.198959 29.104166,0 9.004933,-5.199 14.552167,-14.80718 14.552084,-25.20518 v -63.5 c 8.3e-5,-10.398 -5.547151,-20.00618 -14.552084,-25.20518 -4.424415,-2.554343 -9.443256,-3.899058 -14.552083,-3.898987 z m -2.645833,29.104167 h 5.291666 v 63.5 h -5.291666 z"
             sodipodi:nodetypes="ccccssccccccccc"
             transform="translate(127.00001)"
             inkscape:label="upper" /></g><g
           id="g718"
           transform="rotate(180,87.312497,43.000093)"
           style="fill:#5481a0;fill-opacity:1"
           inkscape:label="right"><path
             id="path678"
             style="fill:#5481a0;fill-opacity:1;stroke:none;stroke-width:0.502708"
             d="m 55.5625,-81.354187 c -5.108827,-7.1e-5 -10.127668,1.344644 -14.552083,3.898987 -9.004933,5.199 -14.552167,14.80718 -14.552084,25.20518 V 40.354147 H 52.916667 V -52.25002 h 5.291666 V 40.354147 H 84.666667 V -52.25002 c 8.3e-5,-10.398 -5.547151,-20.00618 -14.552084,-25.20518 -4.424415,-2.554343 -9.443256,-3.899058 -14.552083,-3.898987 z"
             sodipodi:nodetypes="cccccccccccc"
             transform="translate(9.9712892e-6)"
             inkscape:label="lower" /><path
             id="path682"
             style="fill:#5481a0;fill-opacity:1;stroke:none;stroke-width:0.502708"
             d="m 55.562499,-81.354187 c -5.108827,-7.1e-5 -10.127668,1.344644 -14.552083,3.898987 -9.004933,5.199 -14.552167,14.80718 -14.552084,25.20518 V 40.354147 H 52.916666 V -52.25002 h 5.291666 V 40.354147 H 84.666666 V -52.25002 c 8.3e-5,-10.398 -5.547151,-20.00618 -14.552084,-25.20518 -4.424415,-2.554343 -9.443256,-3.899058 -14.552083,-3.898987 z"
             sodipodi:nodetypes="cccccccccccc"
             transform="translate(-63.500004)"
             inkscape:label="upper" /></g><g
           id="g514"
           style="fill:#5481a0;fill-opacity:1"
           inkscape:label="left"
           transform="translate(5.0907731e-6)"><path
             id="rect418"
             style="fill:#5481a0;fill-opacity:1;stroke:none;stroke-width:0.502708"
             d="m 55.562499,-81.354187 c -5.108827,-7.1e-5 -10.127668,1.344644 -14.552083,3.898987 -9.004933,5.199 -14.552167,14.80718 -14.552084,25.20518 V 40.354147 H 52.916666 V -52.25002 h 5.291666 V 40.354147 H 84.666666 V -52.25002 c 8.3e-5,-10.398 -5.547151,-20.00618 -14.552084,-25.20518 -4.424415,-2.554343 -9.443256,-3.899058 -14.552083,-3.898987 z"
             sodipodi:nodetypes="cccccccccccc"
             transform="translate(-63.500005)"
             inkscape:label="lower" /><path
             id="rect355"
             style="fill:#5481a0;fill-opacity:1;stroke:none;stroke-width:0.502708"
             d="m 55.5625,-81.354187 c -5.108827,-7.1e-5 -10.127668,1.344644 -14.552083,3.898987 -9.004933,5.199 -14.552167,14.80718 -14.552084,25.20518 V 40.354147 H 52.916667 V -52.25002 h 5.291666 V 40.354147 H 84.666667 V -52.25002 c 8.3e-5,-10.398 -5.547151,-20.00618 -14.552084,-25.20518 -4.424415,-2.554343 -9.443256,-3.899058 -14.552083,-3.898987 z"
             sodipodi:nodetypes="cccccccccccc"
             inkscape:label="upper"
             transform="translate(3.217138e-6)" /></g><g
           id="g701"
           transform="rotate(90,150.8125,-20.500024)"
           style="fill:#5481a0;fill-opacity:1"
           inkscape:label="up"><path
             id="rect472"
             style="fill:#5481a0;fill-opacity:1;stroke:none;stroke-width:0.502708"
             d="m 55.5625,-81.354187 c -5.108827,-7.1e-5 -10.127668,1.344644 -14.552083,3.898987 -9.004933,5.199 -14.552167,14.80718 -14.552084,25.20518 v 63.5 c -8.3e-5,10.398 5.547151,20.00618 14.552084,25.20518 9.00486,5.198959 20.099306,5.198959 29.104166,0 9.004933,-5.199 14.552167,-14.80718 14.552084,-25.20518 v -63.5 c 8.3e-5,-10.398 -5.547151,-20.00618 -14.552084,-25.20518 -4.424415,-2.554343 -9.443256,-3.899058 -14.552083,-3.898987 z m -2.645833,29.104167 h 5.291666 v 63.5 h -5.291666 z"
             sodipodi:nodetypes="ccccssccccccccc"
             transform="translate(127)"
             inkscape:label="lower" /><path
             id="rect442"
             style="fill:#5481a0;fill-opacity:1;stroke:none;stroke-width:0.502708"
             d="m 55.562503,-81.354187 c -5.108827,-7.1e-5 -10.127668,1.344644 -14.552083,3.898987 -9.004933,5.199 -14.552167,14.80718 -14.552084,25.20518 v 63.5 c -8.3e-5,10.398 5.547151,20.00618 14.552084,25.20518 9.00486,5.198959 20.099306,5.198959 29.104166,0 9.004933,-5.199 14.552167,-14.80718 14.552084,-25.20518 v -63.5 c 8.3e-5,-10.398 -5.547151,-20.00618 -14.552084,-25.20518 -4.424415,-2.554343 -9.443256,-3.899058 -14.552083,-3.898987 z M 52.91667,-52.25002 h 5.291666 v 63.5 H 52.91667 Z"
             sodipodi:nodetypes="ccccssccccccccc"
             transform="translate(63.499996)"
             inkscape:label="upper" /></g></g></g></g></svg>
